<svg width="36" height="36" viewBox="0 0 36 36" fill="none" xmlns="http://www.w3.org/2000/svg">
<path d="M18 9.6C16.2912 9.6 14.6207 10.0927 13.1999 11.0157C11.779 11.9387 10.6716 13.2506 10.0177 14.7855C9.36374 16.3204 9.19264 18.0093 9.52602 19.6388C9.85939 21.2682 10.6823 22.7649 11.8906 23.9397C13.0989 25.1145 14.6384 25.9145 16.3144 26.2386C17.9904 26.5627 19.7276 26.3964 21.3064 25.7606C22.8851 25.1248 24.2345 24.0482 25.1839 22.6668C26.1333 21.2854 26.64 19.6614 26.64 18C26.64 15.7722 25.7297 13.6356 24.1094 12.0603C22.4891 10.485 20.2915 9.6 18 9.6ZM18 23.6C16.8608 23.6 15.7471 23.2716 14.7999 22.6562C13.8527 22.0409 13.1144 21.1663 12.6785 20.143C12.2425 19.1198 12.1284 17.9938 12.3507 16.9075C12.5729 15.8212 13.1215 14.8234 13.9271 14.0402C14.7326 13.257 15.759 12.7237 16.8763 12.5076C17.9936 12.2915 19.1518 12.4024 20.2043 12.8263C21.2568 13.2501 22.1563 13.9679 22.7893 14.8888C23.4222 15.8097 23.76 16.8924 23.76 18C23.7553 19.4838 23.1469 20.9055 22.0677 21.9547C20.9885 23.0039 19.5262 23.5954 18 23.6ZM25.92 0.5H10.08C7.40662 0.5 4.84273 1.5325 2.95236 3.37035C1.062 5.20821 0 7.70088 0 10.3V25.7C0 28.2991 1.062 30.7918 2.95236 32.6296C4.84273 34.4675 7.40662 35.5 10.08 35.5H25.92C28.5934 35.5 31.1573 34.4675 33.0476 32.6296C34.938 30.7918 36 28.2991 36 25.7V10.3C36 7.70088 34.938 5.20821 33.0476 3.37035C31.1573 1.5325 28.5934 0.5 25.92 0.5ZM33.12 25.7C33.12 26.6193 32.9338 27.5295 32.5719 28.3788C32.2101 29.2281 31.6798 29.9997 31.0112 30.6497C30.3426 31.2998 29.5489 31.8154 28.6753 32.1672C27.8018 32.5189 26.8655 32.7 25.92 32.7H10.08C9.13448 32.7 8.19822 32.5189 7.32468 32.1672C6.45114 31.8154 5.65741 31.2998 4.98883 30.6497C4.32025 29.9997 3.7899 29.2281 3.42807 28.3788C3.06623 27.5295 2.88 26.6193 2.88 25.7V10.3C2.88 8.44348 3.63857 6.66301 4.98883 5.35025C6.33909 4.0375 8.17044 3.3 10.08 3.3H25.92C26.8655 3.3 27.8018 3.48106 28.6753 3.83284C29.5489 4.18463 30.3426 4.70024 31.0112 5.35025C31.6798 6.00026 32.2101 6.77194 32.5719 7.62122C32.9338 8.4705 33.12 9.38075 33.12 10.3V25.7ZM29.52 8.9C29.52 9.31534 29.3933 9.72135 29.156 10.0667C28.9186 10.412 28.5813 10.6812 28.1866 10.8401C27.7919 10.9991 27.3576 11.0407 26.9386 10.9596C26.5196 10.8786 26.1347 10.6786 25.8327 10.3849C25.5306 10.0912 25.3248 9.71705 25.2415 9.30969C25.1582 8.90233 25.2009 8.48009 25.3644 8.09636C25.5279 7.71264 25.8048 7.38466 26.16 7.15391C26.5152 6.92316 26.9328 6.8 27.36 6.8C27.9329 6.8 28.4823 7.02125 28.8874 7.41508C29.2924 7.8089 29.52 8.34305 29.52 8.9Z" fill="#F4ECDF"/>
</svg>
