<svg width="36" height="36" viewBox="0 0 36 36" fill="none" xmlns="http://www.w3.org/2000/svg">
<path d="M17.985 3C9.705 3 3 9.72 3 18C3 26.28 9.705 33 17.985 33C26.28 33 33 26.28 33 18C33 9.72 26.28 3 17.985 3ZM18 30C11.37 30 6 24.63 6 18C6 11.37 11.37 6 18 6C24.63 6 30 11.37 30 18C30 24.63 24.63 30 18 30ZM17.67 10.5H17.58C16.98 10.5 16.5 10.98 16.5 11.58V18.66C16.5 19.185 16.77 19.68 17.235 19.95L23.46 23.685C23.97 23.985 24.63 23.835 24.93 23.325C25.0053 23.2035 25.0554 23.0682 25.0773 22.9269C25.0992 22.7857 25.0925 22.6415 25.0575 22.503C25.0225 22.3644 24.96 22.2343 24.8737 22.1204C24.7873 22.0065 24.679 21.9111 24.555 21.84L18.75 18.39V11.58C18.75 10.98 18.27 10.5 17.67 10.5Z" fill="#292929"/>
</svg>
