<svg width="36" height="36" viewBox="0 0 36 36" fill="none" xmlns="http://www.w3.org/2000/svg">
<path d="M22.5 16.5V16.515M7.75949 12.567C7.10159 12.0614 6.5963 11.3836 6.29948 10.6088C6.00266 9.83393 5.92585 8.99209 6.07756 8.17631C6.22927 7.36053 6.60358 6.60258 7.15912 5.98624C7.71466 5.36989 8.42979 4.91914 9.22549 4.68382C10.0212 4.44849 10.8665 4.43775 11.6679 4.65278C12.4693 4.86781 13.1957 5.30024 13.7667 5.90228C14.3377 6.50431 14.7311 7.2525 14.9035 8.06417C15.0759 8.87583 15.0205 9.71935 14.7435 10.5015" stroke="#292929" stroke-width="3" stroke-linecap="round" stroke-linejoin="round"/>
<path d="M24 6V11.7045C25.8564 12.7787 27.2698 14.4787 27.987 16.5H29.9985C30.3963 16.5 30.7778 16.658 31.0591 16.9393C31.3404 17.2206 31.4985 17.6022 31.4985 18V21C31.4985 21.3978 31.3404 21.7794 31.0591 22.0607C30.7778 22.342 30.3963 22.5 29.9985 22.5H27.9855C27.4815 23.925 26.625 25.2 25.4985 26.2095V29.25C25.4985 29.8467 25.2614 30.419 24.8395 30.841C24.4175 31.2629 23.8452 31.5 23.2485 31.5C22.6517 31.5 22.0795 31.2629 21.6575 30.841C21.2355 30.419 20.9985 29.8467 20.9985 29.25V28.3755C20.5028 28.4585 20.0011 28.5002 19.4985 28.5H13.4985C12.9959 28.5002 12.4942 28.4585 11.9985 28.3755V29.25C11.9985 29.8467 11.7614 30.419 11.3395 30.841C10.9175 31.2629 10.3452 31.5 9.74849 31.5C9.15175 31.5 8.57945 31.2629 8.1575 30.841C7.73554 30.419 7.49849 29.8467 7.49849 29.25V26.25L7.49999 26.2095C6.14102 24.9945 5.18303 23.3955 4.7528 21.6242C4.32256 19.8528 4.44037 17.9925 5.09063 16.2895C5.74089 14.5866 6.89294 13.1212 8.39431 12.0874C9.89569 11.0536 11.6756 10.5 13.4985 10.5H17.2485L23.9985 6H24Z" stroke="#292929" stroke-width="3" stroke-linecap="round" stroke-linejoin="round"/>
</svg>
