<svg width="60" height="60" viewBox="0 0 60 60" fill="none" xmlns="http://www.w3.org/2000/svg">
<path d="M47.654 10.881L46.522 12.583C46.354 12.833 42.683 18.403 41.427 24.6L39.095 20.656C41.963 18.169 42.911 13.319 41.128 8.76C39.068 3.487 33.576 0.902 33.341 0.794L31.62 0L32.374 1.773C32.379 1.785 32.521 2.145 32.634 2.764C31.6185 2.05965 30.5638 1.41361 29.475 0.829L28.736 0.447L28.46 1.247C28.435 1.323 27.93 2.808 27.484 4.902C27.2971 4.61969 27.1387 4.31955 27.011 4.006L26.356 2.182L25.649 3.987C25.553 4.23 23.332 10.019 25.392 15.293C25.428 15.386 25.473 15.473 25.511 15.564C25.355 15.427 25.203 15.288 25.038 15.156C20.656 11.672 14.639 12.283 14.386 12.311L12.506 12.516L14.032 13.657C14.042 13.665 14.345 13.901 14.746 14.377C12.666 14.245 11.143 14.337 11.065 14.343L10.238 14.396L10.395 15.23C10.41 15.308 10.708 16.85 11.357 18.888C11.0574 18.7403 10.773 18.5634 10.508 18.36L9.041 17.124L9.321 19.047C9.353 19.272 10.063 23.867 13.066 27.363C7.582 26.674 2.734 30.313 2.531 30.47L1.016 31.624L2.896 31.811C2.908 31.813 3.285 31.859 3.869 32.059C2.77252 32.6286 1.70885 33.2593 0.683 33.948L0 34.426L0.548 35.06C0.6 35.121 1.625 36.291 3.198 37.707C2.86641 37.7362 2.53271 37.7319 2.202 37.694L0.326 37.395L1.525 38.903C1.686 39.108 5.553 43.905 11.057 44.62C14.191 45.027 17.249 44.254 19.453 42.501C20.758 41.461 21.656 40.116 22.092 38.637L26.081 39.344C22.269 41.07 19.913 42.991 18.566 44.37C17.746 45.209 17.388 45.764 17.374 45.787L16.761 46.744L23.086 45.635L21.881 46.874C21.881 46.874 36.083 44.415 44.522 50.466L42.745 52.296L46.374 56.032L47.819 54.545C48.729 56.949 49.252 60 49.252 60L52.02 57.166L53.947 59.139L59.153 53.81L57.226 51.838L60 48.998C60 48.998 57.016 48.443 54.671 47.495L56.118 46.005L52.488 42.269L50.708 44.1C44.826 35.415 47.218 20.799 47.218 20.799L46.342 21.702L47.654 10.881ZM29.573 2.582C30.6688 3.21872 31.7285 3.91579 32.747 4.67C32.697 5.71 32.458 6.977 31.835 8.387C30.439 7.818 29.42 7.078 28.687 6.368C28.969 4.782 29.331 3.407 29.573 2.582ZM34.145 2.951C35.815 4.015 38.538 6.145 39.776 9.314C41.6 13.985 40.221 18.972 36.704 20.431C36.5633 20.4895 36.4186 20.5379 36.271 20.576L36.27 20.577C34.35 21.091 31.939 20.139 30.786 18.411C29.558 16.572 29.884 14.145 31.706 11.575C34.239 7.991 34.389 4.824 34.145 2.951ZM35.34 22.354L37.118 26.739C36.2 25.453 35.43 23.943 34.785 22.421C34.972 22.408 35.155 22.379 35.34 22.354ZM26.746 14.736C25.51 11.573 26.042 8.082 26.529 6.115C27.332 7.236 28.769 8.705 31.157 9.714C30.966 10.037 30.758 10.364 30.521 10.698C27.998 14.263 28.41 16.926 29.158 18.503C28.108 17.423 27.2875 16.1416 26.746 14.736ZM30.399 21.332C30.599 23.967 31.34 27.063 33.193 30.267L28.861 27.203C29.841 25.125 29.792 22.613 28.848 20.234C29.34 20.649 29.855 21.024 30.399 21.332ZM35.187 32.888L33.584 34.529L27.549 29.149C27.69 28.992 27.832 28.838 27.959 28.67L28.069 28.508C28.09 28.481 28.116 28.455 28.137 28.429C28.224 28.313 28.294 28.189 28.373 28.069L35.187 32.888ZM16.143 13.757C18.11 13.812 21.51 14.241 24.143 16.335C28.024 19.421 29.296 24.438 26.982 27.517C26.8885 27.6397 26.7876 27.7565 26.68 27.867C25.276 29.305 22.726 29.729 20.877 28.836C18.91 27.885 17.992 25.621 18.295 22.462C18.713 18.058 17.277 15.246 16.143 13.757ZM29.284 32.016C28.3062 31.4233 27.3413 30.8095 26.39 30.175C26.554 30.061 26.699 29.925 26.851 29.797C26.841 29.805 26.834 29.816 26.825 29.823L29.284 32.016ZM12.016 15.803C12.85 15.789 14.227 15.808 15.785 15.962C16.258 16.885 16.676 18.103 16.835 19.641C15.348 19.871 14.104 19.761 13.12 19.528C12.6856 18.307 12.3171 17.0635 12.016 15.803ZM11.135 20.426C12.379 20.979 14.346 21.502 16.904 21.137C16.899 21.516 16.882 21.907 16.842 22.316C16.424 26.698 18.094 28.783 19.519 29.755C19.167 29.662 18.819 29.548 18.472 29.416C17.7406 28.9015 16.9516 28.4743 16.121 28.143C15.939 28.014 15.754 27.895 15.577 27.753C12.948 25.662 11.684 22.375 11.135 20.426ZM20.688 31.494C21.358 31.568 22.024 31.569 22.68 31.506C23.4219 32.7127 24.2322 33.8759 25.107 34.99L22.275 34.872C22.012 33.6392 21.469 32.4834 20.688 31.494ZM2.229 34.71C3.30232 34.0402 4.41166 33.43 5.552 32.882C6.418 33.432 7.382 34.26 8.286 35.503C7.121 36.475 5.995 37.029 5.033 37.34C4.05071 36.5155 3.11462 35.6375 2.229 34.71ZM11.241 43.137C7.939 42.708 5.214 40.538 3.77 39.148C5.117 38.974 7.069 38.401 9.088 36.753C9.274 37.08 9.452 37.426 9.623 37.798C11.442 41.788 13.917 42.711 15.628 42.807C14.268 43.21 12.771 43.336 11.241 43.137ZM20.852 37.447V37.449C20.358 39.417 18.376 41.112 16.34 41.306C14.174 41.512 12.258 40.043 10.945 37.165C9.113 33.158 6.48 31.489 4.761 30.798C6.481 29.819 9.621 28.418 12.929 28.846C13.808 28.96 14.643 29.175 15.422 29.469C16.194 30 17.004 30.437 17.836 30.768C19.969 32.331 21.22 34.622 20.938 36.991C20.918 37.144 20.891 37.296 20.852 37.447ZM23.851 44.49L19.001 45.341C20.347 43.895 23.124 41.539 27.995 39.61L29.014 39.208L23.851 44.49ZM29.31 38.904L22.316 37.665C22.327 37.601 22.343 37.537 22.352 37.473L22.367 37.278C22.371 37.242 22.385 37.207 22.387 37.172C22.439 36.736 22.437 36.304 22.409 35.874L27.299 36.081L26.556 35.208C25.468 33.932 24.524 32.581 23.731 31.323C24.3267 31.1941 24.9053 30.9961 25.455 30.733C27.8387 32.3453 30.3076 33.8278 32.851 35.174L32.92 35.21L29.31 38.904ZM57.775 53.812L53.946 57.732L52.71 56.46L56.541 52.54L57.775 53.812ZM52.488 43.681L54.746 46.005L46.373 54.62L44.116 52.296L52.488 43.681ZM35.747 32.314L35.418 31.871C32.785 28.312 31.735 24.79 31.421 21.827C32.1516 22.1361 32.9246 22.3333 33.714 22.412C34.815 25.103 36.318 27.827 38.315 29.543L38.391 29.609L35.747 32.314ZM39.059 28.926L36.313 22.156C36.537 22.091 36.759 22.019 36.977 21.93L37.152 21.849C37.184 21.835 37.22 21.829 37.253 21.815C37.6213 21.6574 37.975 21.4677 38.31 21.248L41.42 26.51L39.059 28.926ZM42.219 25.69C42.89 21.515 44.873 17.425 46.162 15.1L45.254 22.583L42.219 25.69Z" fill="purple"/>
</svg>
